<svg xmlns="http://www.w3.org/2000/svg" xmlns:xlink="http://www.w3.org/1999/xlink" viewBox="0 0 279.69 232.26"><defs><style>.cls-1{fill:none;}.cls-2{fill:#0c1975;}.cls-3{fill:#fff;fill-rule:evenodd;}.cls-4{clip-path:url(#clip-path);}.cls-5{fill:#f37037;}</style><clipPath id="clip-path" transform="translate(0 0)"><rect class="cls-1" width="279.69" height="232.26"/></clipPath></defs><title>EDT Offshore logo - For Digital Use only</title><g id="Layer_2" data-name="Layer 2"><g id="Layer_1-2" data-name="Layer 1"><polygon class="cls-2" points="196.99 0 196.92 0.01 196.9 0.01 196.84 0 81.4 0.11 81.36 0.11 81.31 0.11 78.03 0.2 74.92 0.45 71.84 0.87 68.82 1.45 65.85 2.18 62.94 3.06 60.09 4.08 57.3 5.25 54.59 6.55 51.95 7.99 49.38 9.56 46.9 11.25 44.5 13.06 42.19 14.98 39.97 17.02 37.84 19.17 35.82 21.43 33.9 23.78 32.09 26.23 30.39 28.77 28.8 31.4 27.33 34.11 25.99 36.9 24.76 39.76 23.68 42.7 22.72 45.71 21.9 48.78 21.22 51.91 20.69 55.09 20.3 58.32 20.07 61.6 19.99 64.93 20.07 68.25 20.31 71.53 20.71 74.77 21.25 77.95 21.93 81.08 22.76 84.14 23.72 87.15 24.81 90.08 26.04 92.95 27.39 95.74 28.86 98.45 30.45 101.07 32.16 103.61 33.98 106.05 35.9 108.4 37.93 110.65 40.06 112.79 42.28 114.83 44.6 116.75 47 118.56 49.49 120.25 52.05 121.81 54.7 123.24 57.41 124.54 60.21 125.7 63.06 126.72 65.97 127.6 68.94 128.32 71.96 128.89 75.04 129.3 78.16 129.54 81.28 129.62 81.51 129.62 81.52 129.62 81.56 129.62 197.22 129.51 200.34 129.43 203.45 129.18 206.53 128.76 209.55 128.18 212.52 127.46 215.43 126.58 218.28 125.55 221.07 124.38 223.78 123.08 226.43 121.65 229 120.08 231.48 118.39 233.88 116.58 236.19 114.65 238.41 112.61 240.54 110.46 242.56 108.21 244.48 105.85 246.29 103.41 248 100.87 249.58 98.24 251.05 95.53 252.4 92.74 253.62 89.87 254.71 86.93 255.67 83.93 256.49 80.86 257.17 77.73 257.7 74.54 258.09 71.31 258.32 68.03 258.4 64.7 258.32 61.38 258.08 58.1 257.69 54.87 257.15 51.68 256.46 48.56 255.63 45.49 254.67 42.48 253.58 39.55 252.35 36.68 251 33.9 249.52 31.19 247.93 28.56 246.22 26.02 244.41 23.58 242.48 21.23 240.46 18.98 238.32 16.84 236.1 14.8 233.78 12.88 231.38 11.07 228.89 9.39 226.32 7.83 223.68 6.39 220.96 5.09 218.17 3.93 215.31 2.91 212.4 2.04 209.43 1.31 206.41 0.74 203.33 0.33 200.22 0.09 196.99 0"/><polygon class="cls-3" points="106.28 31.81 104.07 47.54 75.12 47.57 73.76 56.66 99.36 56.64 97.16 71.46 71.64 71.49 70.2 82.22 101.04 82.19 98.92 98.1 48.23 98.15 57.64 31.86 106.28 31.81"/><polygon class="cls-3" points="174.09 48.57 176.55 31.75 231.3 31.7 228.66 48.52 211.73 48.53 204.95 98 184.93 98.02 191.79 48.55 174.09 48.57"/><g class="cls-4"><path class="cls-3" d="M133.93,81.61h-4.8l4.74-33.83c2.84,0,5.59,0,8.42.26,6.53.91,8.27,7.45,8.28,13.45,0,8.09-2.8,19.37-12.17,19.93a36.39,36.39,0,0,1-4.47.18M116.42,31.8l-9.34,66.29,29,0c22.7,0,34.35-14.85,34.31-37.94-.27-12.73-6.91-25.73-19.81-27.81a81.22,81.22,0,0,0-9.28-.53Z" transform="translate(0 0)"/><path class="cls-5" d="M0,231.54l8.74-.62,8.74-.47L35,229.54l17.48-.68c5.83-.22,11.66-.33,17.48-.51l8.74-.24L87.4,228l17.49-.29,35-.21c11.65.08,23.3.09,35,.22s23.31.31,35,.68c5.83.18,11.65.29,17.48.51l17.48.68,17.48.91,8.74.46,8.74.62V232l-139.84.24L0,232Z" transform="translate(0 0)"/><path class="cls-2" d="M69.11,189.72a25.42,25.42,0,0,1-2.61,8.63,23.86,23.86,0,0,1-5.22,6.87,23.38,23.38,0,0,1-7.38,4.53,24.68,24.68,0,0,1-9.06,1.63,21.6,21.6,0,0,1-8.63-1.63,17,17,0,0,1-6.28-4.53,17.35,17.35,0,0,1-3.57-6.87,22.51,22.51,0,0,1-.5-8.63,25.35,25.35,0,0,1,2.62-8.63,23.7,23.7,0,0,1,12.65-11.4,24.8,24.8,0,0,1,9-1.62,23.42,23.42,0,0,1,6,.74,19.07,19.07,0,0,1,5,2.12,16.08,16.08,0,0,1,3.89,3.31,17.06,17.06,0,0,1,2.7,4.35,19.67,19.67,0,0,1,1.38,5.21,24,24,0,0,1,0,5.92m-8.11,0a18.86,18.86,0,0,0-.18-6.25,11.7,11.7,0,0,0-2.11-4.71,9.77,9.77,0,0,0-3.87-3,13.84,13.84,0,0,0-5.5-1,15.68,15.68,0,0,0-5.75,1,13.85,13.85,0,0,0-4.62,3,15.68,15.68,0,0,0-3.28,4.71A20.79,20.79,0,0,0,34,189.72a18.4,18.4,0,0,0,.18,6.26,11.3,11.3,0,0,0,2.12,4.69,9.86,9.86,0,0,0,3.89,2.94,13.63,13.63,0,0,0,5.5,1,15.52,15.52,0,0,0,5.75-1,13.62,13.62,0,0,0,4.6-2.94A15.59,15.59,0,0,0,59.28,196,20.86,20.86,0,0,0,61,189.72" transform="translate(0 0)"/><path class="cls-2" d="M89.08,186.26H84.64l-.37,3.09-.38,3.08-.38,3.08-.38,3.08-.38,3.08-.38,3.08L82,207.83l-.37,3.08h-7.3l.38-3.08.38-3.07.38-3.08.38-3.08.37-3.07.38-3.08.38-3.08.38-3.07-.33-.06-.32-.05-.32-.05-.32,0-.32-.05-.33,0-.32-.05-.32-.05-.2,0-.2-.06-.18-.06-.16-.07-.16-.08-.14-.09-.14-.09-.12-.11-.11-.11-.09-.12s0-.09-.07-.14a.58.58,0,0,1,0-.14.94.94,0,0,1,0-.16.88.88,0,0,1,0-.17,1.08,1.08,0,0,1,0-.18,1.21,1.21,0,0,1,0-.19l.05-.37,0-.37,0-.37,0-.37,0-.37,0-.37,0-.37,0-.37H78l0-.21,0-.22,0-.21,0-.21,0-.21,0-.22,0-.21,0-.21.09-.64c0-.21.07-.41.12-.62s.08-.4.13-.6.1-.4.16-.59.11-.38.18-.57.13-.37.2-.55.15-.36.23-.54.16-.35.24-.52l.27-.5c.09-.17.19-.33.29-.49l.3-.46c.11-.16.22-.3.33-.45s.22-.29.34-.43l.36-.4c.13-.14.26-.26.39-.39l.4-.37.41-.35.44-.33.45-.3L84,170c.16-.09.32-.18.49-.26a4.59,4.59,0,0,1,.5-.24l.52-.23.54-.2.56-.18.56-.15.59-.13.59-.11.61-.08c.21,0,.41-.05.62-.06l.64,0h1.17c.17,0,.34,0,.51,0l.49,0,.49.06.47.08.46.09.45.12.44.13-.07.45-.08.45-.07.45-.08.45-.07.45-.07.45-.08.45-.07.45s0,.07,0,.1l0,.1,0,.09,0,.09,0,.08,0,.07,0,.08-.06.07-.06.06-.07.06-.07.06-.07.05-.07,0-.08.05-.09,0-.08,0-.09,0-.1,0-.09,0-.1,0-.11,0-.1,0-.11,0H90.8l-.31,0-.3,0-.29,0-.28.05-.27.06-.27.06-.26.08a1.25,1.25,0,0,0-.25.09l-.24.1-.24.11-.23.13-.21.14-.21.15-.21.17a1.57,1.57,0,0,0-.19.18,1.62,1.62,0,0,0-.18.19,1.81,1.81,0,0,0-.18.21l-.17.22-.16.23-.15.25-.14.26-.13.27-.12.29c0,.1-.08.21-.11.31s-.07.22-.11.33l-.09.34a3.21,3.21,0,0,0-.08.36c0,.12-.06.24-.08.37l-.06.39-.06.41,0,.19,0,.18,0,.18,0,.19,0,.18,0,.18,0,.18,0,.19h4.53Zm3.51-5.15h4.53l0-.33,0-.34,0-.33,0-.34,0-.33,0-.33,0-.34,0-.33.09-.64.12-.62c0-.2.08-.4.13-.6s.1-.39.16-.59l.18-.57c.06-.18.13-.37.2-.55s.15-.36.23-.54l.24-.52.27-.5c.09-.17.19-.33.29-.49l.3-.46.33-.45.34-.42c.12-.14.24-.28.37-.41l.38-.39.4-.37c.13-.12.27-.23.41-.34s.29-.23.44-.33l.45-.31.47-.28c.16-.1.32-.18.49-.27l.5-.24.53-.22c.17-.08.35-.14.53-.21l.56-.17.57-.16.58-.13.59-.11.61-.08.62-.06.64,0,.65,0h.76l.25,0,.25,0,.24,0,.24,0,.24,0,.23,0,.24,0,.23,0,.23,0,.24.05.23.06.23.06.22.06-.07.45-.08.46-.08.45-.08.46-.08.45-.07.46-.08.45-.08.46a1.46,1.46,0,0,1,0,.2,1.34,1.34,0,0,1-.07.18.51.51,0,0,1-.09.16.78.78,0,0,1-.1.15l-.12.12-.15.11-.16.08a.49.49,0,0,1-.17.06l-.19.06-.2,0-.21,0-.21,0-.22,0-.22,0h-1.11l-.31,0-.3,0-.29,0-.28.05-.27.06-.27.06-.26.08-.25.09-.24.1-.24.11-.22.13-.22.14-.21.15-.2.17-.2.18-.18.19-.18.21-.17.22-.16.23-.14.25c0,.09-.1.17-.14.26l-.14.28-.12.29c0,.1-.08.2-.11.3s-.07.22-.1.33a3.37,3.37,0,0,0-.1.34c0,.12-.06.24-.08.36s0,.25-.08.37l-.06.4-.06.41,0,.3,0,.3,0,.31,0,.3,0,.31,0,.3,0,.3,0,.31H112l-.08.64-.08.65-.08.64-.08.65-.08.64-.08.65-.08.64-.08.64h-7.61l-.38,3.09-.38,3.08-.38,3.08-.38,3.08-.38,3.08-.37,3.08-.38,3.08-.38,3.08H93.46l.37-3.08.38-3.08.38-3.08.38-3.08.38-3.08.38-3.08.38-3.08.37-3.09H92Z" transform="translate(0 0)"/><path class="cls-2" d="M134,186.7a2.14,2.14,0,0,1-.71.66,1.7,1.7,0,0,1-.85.19,2.35,2.35,0,0,1-1.1-.29L130,186.6a12.57,12.57,0,0,0-1.73-.66,8.63,8.63,0,0,0-2.37-.29,6.08,6.08,0,0,0-3.5.91,3.24,3.24,0,0,0-1.51,2.37,2,2,0,0,0,.43,1.63,4.9,4.9,0,0,0,1.54,1.16,14.72,14.72,0,0,0,2.27.89c.85.26,1.72.55,2.6.86s1.73.67,2.57,1.07a8.12,8.12,0,0,1,2.19,1.53,6,6,0,0,1,1.41,2.21,6.71,6.71,0,0,1,.25,3.11,11.1,11.1,0,0,1-1.27,4,10.35,10.35,0,0,1-2.71,3.16,12.5,12.5,0,0,1-4.05,2.08,17.4,17.4,0,0,1-5.3.75,15.63,15.63,0,0,1-3-.28,16.11,16.11,0,0,1-2.77-.77,14.48,14.48,0,0,1-2.4-1.18,10.92,10.92,0,0,1-1.87-1.46l2-2.76a3,3,0,0,1,.86-.76,2.42,2.42,0,0,1,1.16-.26,2.21,2.21,0,0,1,1.24.38c.37.25.8.52,1.3.82a10.52,10.52,0,0,0,1.77.82,8,8,0,0,0,2.69.38,7.31,7.31,0,0,0,2.26-.31,5.45,5.45,0,0,0,1.64-.8,3.72,3.72,0,0,0,1-1.16,3.64,3.64,0,0,0,.45-1.36,2.17,2.17,0,0,0-.42-1.73,4.79,4.79,0,0,0-1.54-1.18,15.51,15.51,0,0,0-2.28-.89c-.86-.26-1.74-.55-2.64-.86a23.18,23.18,0,0,1-2.61-1.1,7.93,7.93,0,0,1-2.2-1.6A6.08,6.08,0,0,1,114.1,193a7.87,7.87,0,0,1-.22-3.4,9.57,9.57,0,0,1,1.17-3.52,10,10,0,0,1,2.53-2.92,12.89,12.89,0,0,1,3.82-2,15.79,15.79,0,0,1,5-.75,14.37,14.37,0,0,1,5.57,1,10.94,10.94,0,0,1,4,2.7Z" transform="translate(0 0)"/><path class="cls-2" d="M148.66,184.07a18.92,18.92,0,0,1,4.23-2.67,12.27,12.27,0,0,1,5.11-1,10.15,10.15,0,0,1,4.3.83,7.44,7.44,0,0,1,2.92,2.34,9,9,0,0,1,1.5,3.61,14.71,14.71,0,0,1,.1,4.62l-2.35,19.13h-7.29l2.35-19.13a6,6,0,0,0-.75-4.27A4.21,4.21,0,0,0,155.1,186a8.38,8.38,0,0,0-3.65.85,15,15,0,0,0-3.41,2.32l-2.67,21.74h-7.3l5.35-43.55h7.3Z" transform="translate(0 0)"/><path class="cls-2" d="M188.06,180.38a15.61,15.61,0,0,1,6,1.08,11.37,11.37,0,0,1,4.35,3.08,11.5,11.5,0,0,1,2.43,4.86,17.79,17.79,0,0,1,.27,6.42,20.09,20.09,0,0,1-1.85,6.45,16.25,16.25,0,0,1-3.63,4.89,15.61,15.61,0,0,1-5.1,3.11,17.78,17.78,0,0,1-6.26,1.08,15.83,15.83,0,0,1-6-1.08,11.29,11.29,0,0,1-4.36-3.11,12.12,12.12,0,0,1-2.44-4.89,17.49,17.49,0,0,1-.28-6.45A19.74,19.74,0,0,1,173,189.4a16.39,16.39,0,0,1,3.64-4.86,15.7,15.7,0,0,1,5.12-3.08,18,18,0,0,1,6.3-1.08m-3.12,25.4a7.32,7.32,0,0,0,5.91-2.52,14,14,0,0,0,2.72-7.38c.4-3.24.1-5.72-.91-7.42s-2.76-2.55-5.28-2.55a7.42,7.42,0,0,0-6,2.57,13.87,13.87,0,0,0-2.75,7.4c-.4,3.22-.08,5.68.94,7.37s2.81,2.53,5.37,2.53" transform="translate(0 0)"/><path class="cls-2" d="M214.29,186.06a15.37,15.37,0,0,1,3.88-4.23,8,8,0,0,1,4.8-1.54,5.11,5.11,0,0,1,3.25.91l-1.13,5.42a1.69,1.69,0,0,1-.52.74,1.31,1.31,0,0,1-.78.22,7.89,7.89,0,0,1-1.3-.14,9.71,9.71,0,0,0-1.68-.15,6.64,6.64,0,0,0-2.2.35,6.51,6.51,0,0,0-1.82,1,8.3,8.3,0,0,0-1.52,1.6,17.12,17.12,0,0,0-1.34,2.14l-2.28,18.52h-7.29l3.69-30.07h4.28a2.13,2.13,0,0,1,1.52.4,2.05,2.05,0,0,1,.41,1.42Z" transform="translate(0 0)"/><path class="cls-2" d="M233.08,196.79a13.33,13.33,0,0,0,.34,4,6.91,6.91,0,0,0,1.37,2.78,5.68,5.68,0,0,0,2.32,1.64,8.74,8.74,0,0,0,3.17.54,10.3,10.3,0,0,0,3.1-.41,15.13,15.13,0,0,0,2.36-.91c.68-.33,1.28-.63,1.79-.91a3.18,3.18,0,0,1,1.46-.41,1.31,1.31,0,0,1,1.27.68l1.78,2.64a15.26,15.26,0,0,1-3,2.36,17.75,17.75,0,0,1-3.33,1.52,19.27,19.27,0,0,1-3.44.81,25.75,25.75,0,0,1-3.32.23,15.41,15.41,0,0,1-5.75-1,11.08,11.08,0,0,1-4.34-3.08,12.25,12.25,0,0,1-2.54-5,18.75,18.75,0,0,1-.3-7,18,18,0,0,1,1.71-5.79,16.65,16.65,0,0,1,3.46-4.71,16.12,16.12,0,0,1,11.21-4.36,14.13,14.13,0,0,1,5.17.91,9.75,9.75,0,0,1,3.84,2.66,10.41,10.41,0,0,1,2.21,4.27,15.38,15.38,0,0,1,.28,5.79,5.13,5.13,0,0,1-.63,2.21,1.64,1.64,0,0,1-1.43.58Zm14.45-4.37a8.32,8.32,0,0,0-.08-2.65,5.52,5.52,0,0,0-.92-2.19,4.72,4.72,0,0,0-1.85-1.48,6.53,6.53,0,0,0-2.78-.54,7.58,7.58,0,0,0-5.19,1.79,10.06,10.06,0,0,0-2.94,5.07Z" transform="translate(0 0)"/></g></g></g></svg>