<svg width="177" height="34" viewBox="0 0 177 34" fill="none" xmlns="http://www.w3.org/2000/svg">
<g id="Logo" clip-path="url(#clip0_2774_1411)">
<path id="Vector" d="M12.3497 8.1152C12.3497 9.81708 11.0425 10.9339 8.89619 10.9339H6.03345V5.20574H8.86477C11.0425 5.20574 12.3497 6.19746 12.3497 8.05576V8.11833V8.1152ZM18.3832 7.83677V7.7742C18.3832 2.97203 14.8385 0.156423 9.33299 0.156423H0V21.5144C1.63406 21.0232 3.64835 20.4475 6.03345 19.8187V15.6423H9.01875C14.4331 15.6423 18.3832 12.9487 18.3832 7.83677ZM24.822 13.2865L27.2794 7.12348L29.7053 13.2865H24.822ZM17.1356 17.1533C22.506 15.9864 28.816 14.7725 36.0247 13.6369L30.2364 0H24.4198L17.1388 17.1533H17.1356ZM47.3594 12.032C49.5277 11.7567 51.7557 11.4939 54.0496 11.2405L45.386 0.156423H39.7548V13.0707C41.6874 12.786 43.6765 12.5107 45.7285 12.2416V9.94221L47.3626 12.032H47.3594ZM54.3419 11.2092C56.287 10.9965 58.2793 10.7932 60.3156 10.5992V0.156423H54.3419V11.2061V11.2092ZM62.4179 10.4522C69.1867 9.82959 76.4362 9.31965 84.1603 8.97865C83.2396 3.87615 78.7616 0.00312845 73.3724 0.00312845C67.4741 0.00312845 62.6662 4.63949 62.4179 10.4522ZM105.554 8.54693C105.585 8.24659 105.607 7.94314 105.607 7.6209V7.55834C105.607 5.4216 104.954 3.74788 103.678 2.50902C102.217 1.023 99.9133 0.156423 96.5854 0.156423H86.2877V8.89106C88.2706 8.81597 90.2818 8.7534 92.3212 8.70022V5.35591H96.2712C98.2918 5.35591 99.5362 6.22249 99.5362 7.92749V7.99006C99.5362 8.19341 99.5142 8.38737 99.4765 8.57195C101.475 8.55005 103.499 8.54067 105.548 8.5438M117.385 8.69083C119.396 8.73776 121.433 8.80033 123.491 8.87228L119.723 0H113.906L110.268 8.56882C112.206 8.5876 114.17 8.61888 116.153 8.66268L116.769 7.12035L117.385 8.68771V8.69083ZM146.383 10.1518C148.366 10.302 150.368 10.4678 152.389 10.643V0.156423H146.013L140.818 8.55005L135.627 0.156423H129.251V9.10379C134.656 9.35094 140.212 9.68568 145.912 10.1143L146.39 9.38535V10.1518H146.383ZM173.163 12.8141L167.73 0H161.913L157.209 11.0778C159.113 11.2593 161.033 11.4501 162.969 11.6535L164.776 7.12035L166.718 12.057C168.852 12.2948 171.001 12.5451 173.169 12.811" fill="#AEB717"/>
<path id="Vector_2" d="M0.181641 21.8336H6.03283V20.5228C3.742 21.0108 1.78428 21.4519 0.181641 21.8336ZM33.0356 21.8336H39.5059L36.7406 15.3202C29.0134 16.3494 22.2697 17.435 16.5819 18.4611L15.149 21.8367H21.4967L23.0522 17.9668H31.4519L33.0388 21.8367L33.0356 21.8336ZM39.7541 21.8336H45.7279V14.2064C43.679 14.4411 41.6899 14.682 39.7541 14.926V21.8336ZM55.0295 21.8336H60.3181V12.7392C56.3116 13.0864 52.4684 13.465 48.7949 13.8654L55.0295 21.8336ZM84.3325 11.1624C76.6179 11.5222 69.3432 12.0103 62.5367 12.589C63.3443 17.826 67.8882 21.8336 73.3749 21.8336C79.3486 21.8336 84.2006 17.0783 84.3357 11.1624M122.535 21.8336H129.005L124.26 10.6588C122.199 10.6181 120.156 10.5899 118.139 10.5712L119.207 13.2835H114.324L115.414 10.5493C113.4 10.5399 111.411 10.5368 109.44 10.5493L105.289 20.3225L101.132 14.2784C102.929 13.5182 104.309 12.2887 105.038 10.5837C98.5394 10.6556 92.2891 10.8277 86.2934 11.078V21.8367H92.3269V15.2701H94.9696L99.3564 21.8367H110.99L112.545 17.9668H120.945L122.532 21.8367L122.535 21.8336ZM129.253 21.8336H135.164V10.9591C133.178 10.8871 131.205 10.8246 129.253 10.7714V21.8305V21.8336ZM140.824 17.8698L145.076 11.3908C142.075 11.2375 139.108 11.1061 136.182 10.9966L140.701 17.8698H140.824ZM146.392 21.8336H152.397V11.8038C150.38 11.6786 148.378 11.5629 146.392 11.4565V21.8305V21.8336ZM177.003 21.8336L173.439 13.4431C171.293 13.2429 169.159 13.052 167.041 12.8737L167.204 13.2867H162.321L162.626 12.5202C160.665 12.3669 158.717 12.2261 156.781 12.0947L152.646 21.8367H158.993L160.549 17.9668H168.949L170.535 21.8367H177.006L177.003 21.8336Z" fill="#0F83A6"/>
<path id="Vector_3" d="M152.144 33.9186H152.691V29.6452H154.3V29.1477H150.535V29.6452H152.144V33.9186ZM146.289 33.9186H149.787V33.4275H146.83V31.7569H149.444V31.2657H146.83V29.6358H149.752V29.1446H146.289V33.9155V33.9186ZM140.881 33.9186H141.409V30.0049L144.505 33.9186H144.935V29.1477H144.407V32.9707L141.387 29.1477H140.881V33.9186ZM136.397 32.173L137.494 29.739L138.581 32.173H136.397ZM135.062 33.9186H135.618L136.187 32.6579H138.795L139.357 33.9186H139.939L137.755 29.1133H137.249L135.065 33.9186H135.062ZM131.234 33.9186H134.474V33.4212H131.775V29.1477H131.234V33.9186ZM127.202 31.7444V29.6452H128.415C129.188 29.6452 129.704 29.9987 129.704 30.6807V30.6932C129.704 31.322 129.182 31.7444 128.39 31.7444H127.206H127.202ZM126.662 33.9186H127.202V32.2355H128.365C129.386 32.2355 130.247 31.7037 130.247 30.6744V30.6619C130.247 29.7203 129.534 29.1477 128.453 29.1477H126.659V33.9186H126.662ZM121.207 33.9186H121.753V32.0228L123.746 29.1477H123.114L121.483 31.5348L119.868 29.1477H119.211L121.204 32.0322V33.9218L121.207 33.9186ZM114.504 33.9186H115.044V31.7725H117.81V33.9186H118.35V29.1477H117.81V31.2688H115.044V29.1477H114.504V33.9186ZM111.333 33.9186H111.88V29.6452H113.489V29.1477H109.724V29.6452H111.333V33.9186ZM106.513 33.9186H109.753V33.4212H107.056V29.1477H106.516V33.9186H106.513ZM102.028 32.173L103.125 29.739L104.212 32.173H102.028ZM100.693 33.9186H101.249L101.818 32.6579H104.426L104.989 33.9186H105.57L103.386 29.1133H102.88L100.696 33.9186H100.693ZM96.5167 33.9186H100.014V33.4275H97.0572V31.7569H99.6717V31.2657H97.0572V29.6358H99.9796V29.1446H96.5167V33.9155V33.9186ZM91.3128 33.9186H91.8533V31.7725H94.6187V33.9186H95.1592V29.1477H94.6187V31.2688H91.8533V29.1477H91.3128V33.9186ZM84.7734 32.173L85.8702 29.739L86.9574 32.173H84.7734ZM83.4379 33.9186H83.9941L84.5629 32.6579H87.1711L87.7336 33.9186H88.315L86.131 29.1133H85.625L83.4411 33.9186H83.4379ZM77.3856 31.5817V29.6452H78.8657C79.6387 29.6452 80.0912 29.9987 80.0912 30.5868V30.5993C80.0912 31.2125 79.579 31.5817 78.8594 31.5817H77.3888H77.3856ZM76.8451 33.9186H77.3856V32.0635H78.7557L80.1447 33.9186H80.8077L79.3371 31.9696C80.0912 31.832 80.638 31.3689 80.638 30.5774V30.5649C80.638 30.1895 80.4998 29.8548 80.2672 29.6233C79.9655 29.3229 79.4942 29.1446 78.9034 29.1446H76.842V33.9155L76.8451 33.9186ZM73.2659 33.5025C72.1692 33.5025 71.3773 32.6172 71.3773 31.5316V31.5191C71.3773 30.4367 72.1566 29.5638 73.2533 29.5638C74.35 29.5638 75.1419 30.4492 75.1419 31.5348V31.5473C75.1419 32.6297 74.3626 33.5025 73.2659 33.5025ZM73.2533 34C74.7114 34 75.7044 32.8487 75.7044 31.5316V31.5191C75.7044 30.2052 74.7271 29.0664 73.2659 29.0664C71.8047 29.0664 70.8148 30.2177 70.8148 31.5348V31.5473C70.8148 32.8643 71.7921 34 73.2533 34ZM66.6385 33.9186H67.179V31.8413H69.7747V31.3502H67.179V29.6452H70.0826V29.1477H66.6385V33.9186ZM61.8463 33.9875C62.7985 33.9875 63.4836 33.4556 63.4836 32.6391V32.6266C63.4836 31.8977 62.9902 31.5097 61.9218 31.2782C60.8691 31.053 60.6208 30.8027 60.6208 30.3522V30.3397C60.6208 29.9111 61.0168 29.5701 61.6421 29.5701C62.1355 29.5701 62.5817 29.7265 63.0248 30.0863L63.339 29.6702C62.8519 29.2823 62.3523 29.0852 61.6547 29.0852C60.7434 29.0852 60.0803 29.6358 60.0803 30.3866V30.3991C60.0803 31.1844 60.5862 31.5379 61.6892 31.7756C62.6948 31.9884 62.9368 32.2387 62.9368 32.6829V32.6954C62.9368 33.1647 62.5125 33.5057 61.8683 33.5057C61.2242 33.5057 60.7245 33.2804 60.2249 32.8299L59.8886 33.2241C60.4637 33.7341 61.0859 33.9875 61.8463 33.9875ZM54.7948 33.9186H55.3227V30.0049L58.418 33.9186H58.8485V29.1477H58.3205V32.9707L55.3007 29.1477H54.7948V33.9186ZM51.2155 33.5025C50.1188 33.5025 49.3269 32.6172 49.3269 31.5316V31.5191C49.3269 30.4367 50.1063 29.5638 51.203 29.5638C52.2997 29.5638 53.0916 30.4492 53.0916 31.5348V31.5473C53.0916 32.6297 52.3122 33.5025 51.2155 33.5025ZM51.203 34C52.6611 34 53.6541 32.8487 53.6541 31.5316V31.5191C53.6541 30.2052 52.6736 29.0664 51.2155 29.0664C49.7575 29.0664 48.7644 30.2177 48.7644 31.5348V31.5473C48.7644 32.8643 49.7449 34 51.203 34ZM47.033 33.9186H47.5735V29.1477H47.033V33.9186ZM43.8151 33.9186H44.3619V29.6452H45.9708V29.1477H42.2062V29.6452H43.8151V33.9186ZM39.2681 33.9937C40.4653 33.9937 41.2666 33.271 41.2666 31.882V29.1477H40.7261V31.9227C40.7261 32.9645 40.1636 33.4963 39.2806 33.4963C38.3976 33.4963 37.8163 32.9175 37.8163 31.8883V29.1477H37.2758V31.9227C37.2758 33.271 38.0834 33.9937 39.2681 33.9937ZM33.2503 33.9186H36.4902V33.4212H33.7908V29.1477H33.2503V33.9186ZM29.668 33.5025C28.5713 33.5025 27.7794 32.6172 27.7794 31.5316V31.5191C27.7794 30.4367 28.5587 29.5638 29.6554 29.5638C30.7521 29.5638 31.544 30.4492 31.544 31.5348V31.5473C31.544 32.6297 30.7647 33.5025 29.668 33.5025ZM29.6554 34C31.1135 34 32.1065 32.8487 32.1065 31.5316V31.5191C32.1065 30.2052 31.126 29.0664 29.668 29.0664C28.2099 29.0664 27.2169 30.2177 27.2169 31.5348V31.5473C27.2169 32.8643 28.1973 34 29.6554 34ZM24.6904 33.9875C25.6425 33.9875 26.3276 33.4556 26.3276 32.6391V32.6266C26.3276 31.8977 25.8342 31.5097 24.7658 31.2782C23.7099 31.053 23.4648 30.8027 23.4648 30.3522V30.3397C23.4648 29.9111 23.8608 29.5701 24.4861 29.5701C24.9795 29.5701 25.4257 29.7265 25.8688 30.0863L26.183 29.6702C25.6959 29.2823 25.1963 29.0852 24.4987 29.0852C23.5874 29.0852 22.9243 29.6358 22.9243 30.3866V30.3991C22.9243 31.1844 23.4303 31.5379 24.5332 31.7756C25.5388 31.9884 25.7776 32.2387 25.7776 32.6829V32.6954C25.7776 33.1647 25.3534 33.5057 24.7092 33.5057C24.065 33.5057 23.5654 33.2804 23.0657 32.8299L22.7295 33.2241C23.3046 33.7341 23.9268 33.9875 24.6872 33.9875" fill="#0F83A6"/>
</g>
<defs>
<clipPath id="clip0_2774_1411">
<rect width="177" height="34" fill="white"/>
</clipPath>
</defs>
</svg>
