<?xml version="1.0" encoding="utf-8"?>
<!-- Generator: Adobe Illustrator 27.6.1, SVG Export Plug-In . SVG Version: 6.00 Build 0)  -->
<svg version="1.1" id="Layer_1" xmlns="http://www.w3.org/2000/svg" xmlns:xlink="http://www.w3.org/1999/xlink" x="0px" y="0px"
	 viewBox="0 0 1332.83 380.2" style="enable-background:new 0 0 1332.83 380.2;" xml:space="preserve">
<style type="text/css">
	.st0{fill:#FFFFFF;}
	.st1{fill:#016297;}
	.st2{fill:#00BCE9;}
</style>
<g>
	<g>
		<path class="st0" d="M1308,17.88c-208.8,150.38-392.34,162.83-577.56,162.83c-32.73,0-65.67-0.47-100.53-0.96
			c-36.15-0.51-73.53-1.05-112.05-1.05c-36.08,0-68.76,0.47-99.9,1.45c-87.85,2.74-170.86,14.4-246.73,34.64
			c-59.33,15.83-114.15,36.81-162.92,62.38L0,281.51v9.3v10.29v24.67L22.45,315c69.24-33.22,197.46-72.81,415.11-72.81
			c11.21,0,22.71,0.11,34.18,0.31c68.31,1.44,136.16,7.39,201.77,13.14c74.45,6.52,144.76,12.69,214.83,12.69
			c75.93,0,141.29-7.69,199.79-23.5c69.84-18.87,131.91-49.45,189.78-93.48c4.46-3.39,8.89-6.85,13.54-10.57l0.18-0.14l0.17-0.15
			c0.15-0.12,14.86-12.62,35.74-30.87l5.28-4.61v-6.96V30.37V0L1308,17.88z M1317.2,98.04c-21.04,18.39-35.57,30.72-35.57,30.72
			c-4.31,3.45-8.72,6.9-13.25,10.34c-118.92,90.5-246.04,113.77-380.04,113.77c-132.51,0-271.75-22.77-416.31-25.82
			c-11.73-0.21-23.2-0.32-34.47-0.32c-214.15,0-345,37.45-421.93,74.36v-10.29c80.09-41.98,211.42-89.24,402.83-95.22
			c34.12-1.07,67.17-1.44,99.41-1.44c74.88,0,145.15,2.01,212.58,2.01c203.69,0,382.02-18.34,586.75-165.79V98.04z"/>
	</g>
	<g>
		<path class="st0" d="M1316.82,89.02c-0.26,0.17-30.21,25.19-31.32,25.79s-166.04,64.94-169.62,67.49
			c-3.57,2.55-322.21,35.23-323.74,35.23s-353.87-4.07-353.87-4.07s-81.7,1.01-107.74,2.03s-29.62,3.57-58.21,6.13
			s-52.6,5.11-71.49,7.66c-18.89,2.55-185.87,56.68-185.87,56.68L0,305.18v75.02h1332.83V93.45v-3.4v-3.24
			C1332.83,86.81,1317.07,88.85,1316.82,89.02z"/>
		<g>
			<path class="st2" d="M467.36,223.54C226.98,219.13,82.92,259.99,0,300.22v4.96c85.18-42.53,232.13-82.8,469.58-58.34
				c219.98,23.3,297.75,73.08,513.28,46.6c215.53-26.48,313.54-171.69,313.54-171.69c-4.42,3.57-8.93,7.14-13.57,10.71
				C1040.63,318.85,765.1,229.89,467.36,223.54z"/>
			<path class="st1" d="M412.5,190.95c-196,6.19-330.49,55.14-412.5,98.61v10.66c82.92-40.23,226.98-81.09,467.36-76.68
				c297.75,6.35,573.28,95.32,815.48-91.08c4.64-3.57,9.15-7.14,13.57-10.71v0c0,0,14.88-12.77,36.43-31.82V19.84
				C1023.87,244.87,773.67,179.54,412.5,190.95z"/>
		</g>
	</g>
</g>
</svg>
